<svg width="212" height="28" viewBox="0 0 212 28" fill="none" xmlns="http://www.w3.org/2000/svg">
<rect y="10" width="212" height="4" rx="2" fill="#AFD0FF"/>
<rect x="44.75" y="10" width="107.5" height="4" rx="2" fill="#0D6EFD"/>
<g filter="url(#filter0_d_238_5359)">
<path fill-rule="evenodd" clip-rule="evenodd" d="M49 22C54.5228 22 59 17.5228 59 12C59 6.47715 54.5228 2 49 2C43.4772 2 39 6.47715 39 12C39 17.5228 43.4772 22 49 22Z" fill="white"/>
<path d="M58.5 12C58.5 17.2467 54.2467 21.5 49 21.5C43.7533 21.5 39.5 17.2467 39.5 12C39.5 6.75329 43.7533 2.5 49 2.5C54.2467 2.5 58.5 6.75329 58.5 12Z" stroke="#AFD0FF"/>
</g>
<g filter="url(#filter1_d_238_5359)">
<path fill-rule="evenodd" clip-rule="evenodd" d="M147 22C152.523 22 157 17.5228 157 12C157 6.47715 152.523 2 147 2C141.477 2 137 6.47715 137 12C137 17.5228 141.477 22 147 22Z" fill="white"/>
<path d="M156.5 12C156.5 17.2467 152.247 21.5 147 21.5C141.753 21.5 137.5 17.2467 137.5 12C137.5 6.75329 141.753 2.5 147 2.5C152.247 2.5 156.5 6.75329 156.5 12Z" stroke="#AFD0FF"/>
</g>
<defs>
<filter id="filter0_d_238_5359" x="35" y="0" width="28" height="28" filterUnits="userSpaceOnUse" color-interpolation-filters="sRGB">
<feFlood flood-opacity="0" result="BackgroundImageFix"/>
<feColorMatrix in="SourceAlpha" type="matrix" values="0 0 0 0 0 0 0 0 0 0 0 0 0 0 0 0 0 0 127 0" result="hardAlpha"/>
<feOffset dy="2"/>
<feGaussianBlur stdDeviation="2"/>
<feColorMatrix type="matrix" values="0 0 0 0 0.0627451 0 0 0 0 0 0 0 0 0 0 0 0 0 0.1 0"/>
<feBlend mode="normal" in2="BackgroundImageFix" result="effect1_dropShadow_238_5359"/>
<feBlend mode="normal" in="SourceGraphic" in2="effect1_dropShadow_238_5359" result="shape"/>
</filter>
<filter id="filter1_d_238_5359" x="133" y="0" width="28" height="28" filterUnits="userSpaceOnUse" color-interpolation-filters="sRGB">
<feFlood flood-opacity="0" result="BackgroundImageFix"/>
<feColorMatrix in="SourceAlpha" type="matrix" values="0 0 0 0 0 0 0 0 0 0 0 0 0 0 0 0 0 0 127 0" result="hardAlpha"/>
<feOffset dy="2"/>
<feGaussianBlur stdDeviation="2"/>
<feColorMatrix type="matrix" values="0 0 0 0 0.0627451 0 0 0 0 0 0 0 0 0 0 0 0 0 0.1 0"/>
<feBlend mode="normal" in2="BackgroundImageFix" result="effect1_dropShadow_238_5359"/>
<feBlend mode="normal" in="SourceGraphic" in2="effect1_dropShadow_238_5359" result="shape"/>
</filter>
</defs>
</svg>
